<svg width="256" height="256" viewBox="0 0 67.7 67.7" xmlns="http://www.w3.org/2000/svg"><defs><mask id="c" maskUnits="userSpaceOnUse"><path d="m5.4 19.1h23.4v23.7h-23.4z" fill="#fff"/><path d="m5.4 19.1h23.4v23.7h-23.4z" fill="#fff"/><ellipse cx="17.1" cy="33.7" rx="6.87" ry="7.23"/></mask><mask id="d" maskUnits="userSpaceOnUse"><path d="m5.4 19.1h23.4v23.7h-23.4z" fill="#fff"/><path d="m5.4 19.1h23.4v23.7h-23.4z" fill="#fff"/><path d="m5.4 19.1h23.4v23.7h-23.4z" fill="#fff"/><ellipse cx="17.1" cy="33.7" rx="6.87" ry="7.23"/></mask></defs><g transform="matrix(1.1809 0 0 1.1809 -6.1812 -6.1812)"><path d="m33.9 5.2344c-15.821 0-28.666 12.845-28.666 28.666 0 15.821 12.845 28.664 28.666 28.664 15.821 0 28.664-12.843 28.664-28.664 0-15.821-12.843-28.666-28.664-28.666z" fill="#666"/><path d="m27.631 41.948 6.4387 12.115 6.4387-12.115" fill="none" stroke="#fff" stroke-linecap="round" stroke-linejoin="round" stroke-width="1.7961"/><g transform="matrix(.8472 0 0 .8472 4.9156 5.18)" fill="none" stroke="#fff"><g transform="matrix(-1,0,0,1,34.2,0)" mask="url(#d)"><path d="m26.8 31a9.68 9.83 0 0 1-9.68 9.83 9.68 9.83 0 0 1-9.68-9.83 9.68 9.83 0 0 1 9.68-9.83 9.68 9.83 0 0 1 9.68 9.83z" fill="#fff" stroke-width="2.07"/></g><g transform="matrix(-1,0,0,1,68.4,0)" mask="url(#c)"><path d="m26.8 31a9.68 9.83 0 0 1-9.68 9.83 9.68 9.83 0 0 1-9.68-9.83 9.68 9.83 0 0 1 9.68-9.83 9.68 9.83 0 0 1 9.68 9.83z" fill="#fff" stroke-width="2.07"/></g></g></g></svg>