<?xml version="1.0" encoding="UTF-8"?>
<svg width="256" height="256" version="1.1" viewBox="0 0 67.7 67.7" xmlns="http://www.w3.org/2000/svg"><defs><mask id="b" maskUnits="userSpaceOnUse"><path id="c" d="m5.4 19.1h23.4v23.7h-23.4z" fill="#fff"/><path d="m5.4 19.1h23.4v23.7h-23.4z" fill="#fff"/><ellipse cx="17.1" cy="33.7" rx="6.87" ry="7.23"/></mask><mask id="a" maskUnits="userSpaceOnUse"><path id="d" d="m5.4 19.1h23.4v23.7h-23.4z" fill="#fff"/><path d="m5.4 19.1h23.4v23.7h-23.4z" fill="#fff"/><path d="m5.4 19.1h23.4v23.7h-23.4z" fill="#fff"/><ellipse cx="17.1" cy="33.7" rx="6.87" ry="7.23"/></mask></defs><g fill="none" stroke="#fff"><path d="m66.7 33.9a32.8 32.8 0 01-32.8 32.8 32.8 32.8 0 01-32.8-32.8 32.8 32.8 0 0132.8-32.8 32.8 32.8 0 0132.8 32.8z" stroke-width="2.07"/><path d="m26.5 43.4 7.6 14.3 7.6-14.3" stroke-linecap="round" stroke-linejoin="round" stroke-width="2.12"/><g transform="translate(-.312)"><g transform="matrix(-1 0 0 1 34.2 0)" mask="url(#a)"><path d="m26.8 31a9.68 9.83 0 01-9.68 9.83 9.68 9.83 0 01-9.68-9.83 9.68 9.83 0 019.68-9.83 9.68 9.83 0 019.68 9.83z" fill="#fff" stroke-width="2.07"/></g><g transform="matrix(-1 0 0 1 68.4 0)" mask="url(#b)"><path d="m26.8 31a9.68 9.83 0 01-9.68 9.83 9.68 9.83 0 01-9.68-9.83 9.68 9.83 0 019.68-9.83 9.68 9.83 0 019.68 9.83z" fill="#fff" stroke-width="2.07"/></g></g></g></svg>
